<?xml version="1.0" encoding="UTF-8"?>
<!-- Uploaded to: SVG Repo, www.svgrepo.com, Generator: SVG Repo Mixer Tools -->
<svg width="691.63" height="533.34" fill="none" version="1.1" viewBox="0 0 20.749 16" xmlns="http://www.w3.org/2000/svg">
 <g transform="translate(-3.3125 -4.1784)" fill="#ffffff">
  <path d="m6.5127 4.1786c-1.1201 0-1.6806-2.13e-5 -2.1084 0.21797-0.37633 0.19174-0.68207 0.49748-0.87381 0.87381-0.21799 0.42782-0.21797 0.98827-0.21797 2.1084v9.6c0 1.1201-2.12e-5 1.6799 0.21797 2.1077 0.19174 0.3763 0.49748 0.68258 0.87381 0.87428 0.4274 0.2178 0.98724 0.21779 2.1052 0.21779h9.6067c1.1179 0 1.6769 7e-6 2.1043-0.21779 0.3763-0.1917 0.68264-0.4981 0.87434-0.8744 0.218-0.4278 0.21797-0.98787 0.21797-2.108v-1.657h-0.49998v1.357c0 1.0501 0 1.5752-0.20438 1.9762-0.17972 0.35278-0.46689 0.64001-0.81967 0.81973-0.40069 0.20419-0.92476 0.2042-1.9728 0.2042h-9.0063c-1.0481 0-1.5729-1.2e-5 -1.9736-0.2042-0.35281-0.17972-0.63944-0.46689-0.8192-0.81967-0.20437-0.40106-0.20438-0.92586-0.20438-1.976v-9c0-1.0501 9.2e-6 -1.5755 0.20438-1.9766 0.17976-0.35281 0.46639-0.63944 0.8192-0.8192 0.40108-0.20437 0.92656-0.20438 1.9767-0.20438h9c1.0501 0 1.5749 9.2e-6 1.976 0.20438 0.35278 0.17976 0.63995 0.46639 0.81967 0.8192 0.20438 0.40108 0.20438 0.92609 0.20438 1.9762v1.286h0.49998v-1.586c0-1.1201 3.2e-5 -1.6801-0.21797-2.108-0.1917-0.37633-0.49804-0.68207-0.87434-0.87381-0.4278-0.21799-0.98758-0.21797-2.1077-0.21797h-9.6z"/>
  <path d="m13.942 7.875h1.458l-3.1853 3.6405 3.7472 4.954h-2.934l-2.298-3.0045-2.6295 3.0045h-1.4589l3.4069-3.894-3.5947-4.7005h3.0085l2.0772 2.7463zm-0.5117 7.7218h0.80788l-5.2149-6.895h-0.86694z" stroke-width=".44074"/>
  <path d="m19.847 11.15v-2.1071h1.0536l3.1607 3.1607-3.1607 3.1607h-1.0536v-2.1071h-4.2143v-2.1071z" stroke-width=".52679"/>
 </g>
</svg>
