<?xml version="1.0" encoding="UTF-8"?>
<!-- Created with Inkscape (http://www.inkscape.org/) -->
<svg width="176.46mm" height="24.156mm" version="1.1" viewBox="0 0 176.46 24.156" xmlns="http://www.w3.org/2000/svg">
 <defs>
  <linearGradient id="linearGradient5" x1="39.152" x2="115.68" y1="95.225" y2="111.85" gradientTransform="translate(-40.882,-87.506)" gradientUnits="userSpaceOnUse">
   <stop stop-color="#5f4ddd" offset="0"/>
   <stop stop-color="#2de763" offset="1"/>
  </linearGradient>
  <linearGradient id="linearGradient7" x1="115.48" x2="216.06" y1="8.0093" y2="-13.764" gradientTransform="translate(-39.412 14.883)" gradientUnits="userSpaceOnUse">
   <stop stop-color="#14b34d" offset="0"/>
   <stop stop-color="#0067e6" offset="1"/>
  </linearGradient>
 </defs>
 <path d="m4.026 24.154h-3.9088l3.9088-3.9088zm12.195-17.941 3.987-3.987v11.844h-16.182v3.9088l-3.987 3.987v-21.733l-0.03909-0.03909h20.13l-3.987 3.987h-12.117v6.0196h12.195zm11.023 11.609-3.987 3.987v-21.733l-0.03909-0.03909h20.13l-3.987 3.987h-12.117v6.0196h9.9284v3.8697h-9.9284zm12.235 2.3453 3.987 3.987h-20.13l3.987-3.987zm10.046 3.987h-3.987v-23.961h3.987zm7.974-20.013v13.603l-3.987 3.987v-21.577h20.13l-3.987 3.987zm0 16.026h12.156l3.987 3.987h-20.13z" fill="url(#linearGradient5)" stroke-width=".34488" aria-label="PEIC"/>
 <path d="m76.343 3.0651v20.332h7.7968l3.0587-3.0287v-14.244l-3.0587-3.0587zm8.0667 16.133-1.4094 1.4094h-3.8684v-14.754h3.8684l1.4094 1.4094zm12.685-11.245h-7.7968v12.415l3.0587 3.0587h7.7968v-12.415zm0.2399 12.655h-3.8384l-1.4094-1.4094v-8.4265h3.8684l1.3794 1.4094zm12.985-1.4094-1.4094 1.4094h-3.8684v-9.8659h3.8684l1.4094 1.4094v1.5893h2.7888v-2.7289l-3.0587-3.0587h-7.7968v15.474h7.7968l3.0587-3.0587v-2.7589h-2.7888zm15.743-5.9675v-2.2191l-3.0587-3.0587h-7.7968v6.7772l3.0587 3.0587h5.0079v2.8188h-8.0667v2.8188h10.856v-8.4265h-6.6572l-1.3794-1.4094v-2.8488h3.8384l1.4094 1.4094v1.0796zm19.132-1.4094h-2.6989l-2.5489 2.5789v-11.335h-2.7888v20.332h2.7888v-5.0379l3.7185-3.7185h1.5294v8.7564h2.8188v-20.332h-2.8188zm4.9179 8.5465 3.0587 3.0587h7.7968v-15.474h-2.7888v12.655h-3.8384l-1.4094-1.4094v-11.245h-2.8188zm20.751-12.415h-5.0079v-4.888h-2.7888v20.362h10.826v-12.415zm0.2399 12.655h-5.2478v-9.8659h3.8384l1.4094 1.4094z" fill="url(#linearGradient7)" stroke-width=".265" aria-label="Docs Hub"/>
</svg>
