<?xml version="1.0" encoding="UTF-8"?>
<!-- Created with Inkscape (http://www.inkscape.org/) -->
<svg width="260.15mm" height="27.834mm" version="1.1" viewBox="0 0 260.15 27.834" xmlns="http://www.w3.org/2000/svg">
 <defs>
  <linearGradient id="linearGradient17" x1="86.84" x2="184.63" y1="17.727" y2="-1.0553" gradientUnits="userSpaceOnUse">
   <stop stop-color="#60cfc8" offset="0"/>
   <stop stop-color="#6e3ac5" offset="1"/>
  </linearGradient>
  <linearGradient id="linearGradient19" x1="187.8" x2="260.15" y1="16.257" y2="16.257" gradientUnits="userSpaceOnUse">
   <stop stop-color="#1acb48" offset="0"/>
   <stop stop-color="#2da1f9" offset="1"/>
  </linearGradient>
  <linearGradient id="linearGradient1" x1="2.8939" x2="77.573" y1="26.451" y2="6.1938" gradientUnits="userSpaceOnUse">
   <stop stop-color="#33b9c1" offset="0"/>
   <stop stop-color="#a36ce6" offset="1"/>
  </linearGradient>
 </defs>
 <path d="m2.9388 23.128h-1.4394c-0.77968 0-1.4994 0.41983-1.4994 1.4994 0 1.0796 0.7197 1.4994 1.4994 1.4994h4.9779c2.339 0 3.6885-0.68971 4.738-2.8188l2.7289-5.4577c0.53978-1.0796 0.86964-2.0991 0.86964-3.2986 0-1.3794-0.29988-2.2491-0.89963-3.4786l-2.6389-5.2778c-1.0196-2.0392-2.1891-2.9988-4.5281-2.9988h-5.0079c-0.92962 0-1.7393 0.41983-1.7393 1.4994 0 1.1395 0.83965 1.4994 1.8292 1.4994h1.1095zm2.9988-17.333h0.35985c1.3794 0 1.6493-0.029988 2.2791 1.2595l2.489 5.0679c0.41983 0.86964 0.74969 1.4394 0.74969 2.459 0 0.74969-0.2399 1.2595-0.56976 1.9492l-2.6389 5.3378c-0.53978 1.1095-0.83966 1.2595-2.0991 1.2595h-0.56977zm16.013 14.964c0 1.8892 0.4798 2.6089 1.9792 3.8684s2.0991 1.4994 3.9284 1.4994h2.279c1.8292 0 2.429-0.2399 3.9284-1.4994s1.9792-1.9792 1.9792-3.8684v-5.4278c0-1.9192-0.38984-2.5789-1.8292-3.7484-1.4094-1.1695-2.0692-1.6193-4.0783-1.6193h-2.279c-2.0092 0-2.6689 0.44981-4.0783 1.6193-1.4394 1.1695-1.8292 1.8292-1.8292 3.7484zm2.8788-5.4278c0-0.59975 0.20991-0.98959 1.0496-1.7093 0.62974-0.53978 1.0796-0.77968 1.9792-0.77968h2.279c0.89963 0 1.3494 0.2399 1.9792 0.77968 0.83966 0.7197 1.0496 1.1095 1.0496 1.7093v5.4278c0 0.59975-0.20991 0.98959-1.0496 1.7093-0.62973 0.53978-1.0796 0.77968-1.9792 0.77968h-2.279c-0.89963 0-1.3494-0.2399-1.9792-0.77968-0.83965-0.7197-1.0496-1.1095-1.0496-1.7093zm18.712 4.1083c0 1.7693 0.32986 2.6389 1.7093 3.7784l2.1291 1.7693c1.3494 1.1095 2.0392 1.1395 3.7185 1.1395h4.5581c0.9596 0 1.9792-0.20991 1.9792-1.4394 0-1.2595-1.1395-1.4394-1.9792-1.4394h-5.0679c-0.56977 0-1.1395-0.29988-1.6493-0.7197l-1.7393-1.4694c-0.44982-0.35985-0.77968-0.65973-0.77968-1.2295v-3.5685c0-0.56976 0.32986-0.86964 0.77968-1.2295l1.7393-1.4694c0.50979-0.41983 1.0796-0.7197 1.6493-0.7197h5.0679c0.83965 0 1.9792-0.17992 1.9792-1.4394 0-1.2295-1.0196-1.4394-1.9792-1.4394h-4.5581c-1.6793 0-2.369 0.02999-3.7185 1.1395l-2.1291 1.7693c-1.3794 1.1395-1.7093 2.0092-1.7093 3.7784zm30.887-6.5973c0.77968 0 1.2895 0.05998 1.7693 0.56976 0.35985 0.38984 0.68971 0.59975 1.2295 0.59975 0.77968 0 1.4694-0.62974 1.4694-1.4394s-0.59975-1.1695-1.1395-1.6193c-1.0796-0.89963-1.7393-0.98959-3.3286-0.98959h-4.918c-2.1591 0-3.9584 1.3794-3.9584 3.6585 0 1.8592 0.92961 2.7888 2.519 3.5085l6.7772 3.0887c0.65973 0.29988 1.4994 0.74969 1.4994 1.4394 0 1.6793-1.3794 1.5893-2.399 1.5893h-3.8984c-0.89963 0-1.7993-0.05998-2.309-0.62974-0.32986-0.35985-0.65972-0.50979-1.1095-0.50979-0.80966 0-1.4994 0.62974-1.4994 1.4394 0 0.7197 0.77968 1.2595 1.3195 1.6793 1.0796 0.83965 2.0991 0.89963 3.5985 0.89963h4.4382c2.7589 0 4.738-1.3794 4.738-4.2882 0-2.0691-0.9596-3.2387-2.8188-4.0783l-7.197-3.2686c-0.41983-0.17992-0.77968-0.35985-0.77968-0.83965 0-0.92962 1.0196-0.80967 1.6193-0.80967z" fill="url(#linearGradient1)" aria-label="Docs"/>
 <path d="m89.781 0c-1.9677 0-3.5776 1.6099-3.5776 3.5776v20.679c0 2.0035 1.5384 3.5776 3.5776 3.5776h10.518c2.0392 0 3.5776-1.5742 3.5776-3.5776v-20.679c0-1.9677-1.6099-3.5776-3.5776-3.5776zm0 24.256v-20.679h10.518v20.679zm23.433 0.17888c-0.39354 0.50087-0.82286 0.96596-0.82286 1.6099 0 0.96596 0.7513 1.7888 1.7173 1.7888 1.0375 0 1.7173-1.0375 2.3254-1.7888l4.3647-5.3664 4.3647 5.3664c0.60819 0.7513 1.2879 1.7888 2.3254 1.7888 0.96596 0 1.7173-0.82285 1.7173-1.7888 0-0.64397-0.42932-1.1091-0.82286-1.6099l-5.2591-6.2251 5.2591-6.2251c0.39354-0.50087 0.82286-0.96596 0.82286-1.6099 0-0.96596-0.7513-1.8246-1.7173-1.8246-1.0375 0-1.7173 1.0733-2.3254 1.8246l-4.3647 5.3664-4.3647-5.3664c-0.60819-0.7513-1.2879-1.8246-2.3254-1.8246-0.96596 0-1.7173 0.85863-1.7173 1.8246 0 0.64397 0.42932 1.1091 0.82286 1.6099l5.2591 6.2251zm31.662-12.307v-8.5505h3.363v8.5505zm-1.7888-12.128c-1.2164 0-1.7888 0.85863-1.7888 1.7888v10.339c-1.1091 0-1.9677 0.39354-2.6117 1.0017-0.64397 0.6082-0.96595 1.5026-0.96595 2.6117v8.5147c0 2.1823 1.3595 3.5776 3.5776 3.5776h10.518c2.2181 0 3.5776-1.3953 3.5776-3.5776v-8.5147c0-1.1091-0.32199-2.0035-0.96596-2.6117s-1.5026-1.0017-2.6117-1.0017v-10.339c0-0.93018-0.57242-1.7888-1.7888-1.7888zm-1.7888 24.256v-8.5505h10.518v8.5505zm25.759-24.256c-1.9677 0-3.5776 1.6099-3.5776 3.5776v20.679c0 2.0035 1.5384 3.5776 3.5776 3.5776h10.518c2.0392 0 3.5776-1.5742 3.5776-3.5776v-20.679c0-1.9677-1.6099-3.5776-3.5776-3.5776zm0 24.256v-20.679h10.518v20.679z" fill="url(#linearGradient17)" aria-label="0x80"/>
 <path d="m197.55 12.053-2.7216-2.7486h-7.0331v18.297h2.533v-4.3923h7.2217zm-2.506 8.6229h-4.7156v-8.8654h3.4492l1.2665 1.2665zm4.3923-11.371v13.904h2.506v-11.398h3.4761l1.2395 1.2665v1.509h2.533v-2.533l-2.7486-2.7486zm18.647 0h-7.0061v11.156l2.7486 2.7486h7.0061v-11.156zm0.21557 11.371h-3.4492l-1.2665-1.2665v-7.572h3.4761l1.2395 1.2665zm4.4192 3.1258-1.2665 1.2665h-5.9821v2.533h7.0331l2.7216-2.7486v-15.548h-2.506zm0-18.89v2.506h2.506v-2.506zm14.147 18.297v-3.6917h-2.506v1.1587h-4.7157v-2.2366h7.2217v-6.3863l-2.7486-2.7486h-7.0061v13.904zm-7.2217-7.2756v-4.1228h3.4492l1.2665 1.2665v2.8563zm16.357 3.4761-1.2665 1.2665h-3.4761v-8.8654h3.4761l1.2665 1.2665v1.4282h2.506v-2.4521l-2.7486-2.7486h-7.0061v13.904h7.0061l2.7486-2.7486v-2.4791h-2.506zm11.614-2.5599v2.5599l-1.2395 1.2665h-3.4761v-8.8654h5.3354v-2.506h-5.3354v-4.3923h-2.506v18.297h7.0061l2.7486-2.7486v-3.6108z" fill="url(#linearGradient19)" aria-label="project"/>
</svg>
