<svg width="480" height="480" viewBox="0 0 480 480" fill="none" xmlns="http://www.w3.org/2000/svg">
<rect width="480" height="480" rx="96" fill="black"/>
<path d="M228 74.2153C235.426 69.9281 244.574 69.9281 252 74.2153L378 146.961C385.426 151.249 390 159.172 390 167.747V313.239C390 321.813 385.426 329.737 378 334.024L252 406.77C244.574 411.057 235.426 411.057 228 406.77L102 334.024C94.5744 329.737 90 321.813 90 313.239V167.747C90 159.172 94.5744 151.249 102 146.961L228 74.2153ZM110.457 305.918L177.185 344.444C186.464 349.801 191.103 352.48 194.911 352.124C198.391 351.797 201.556 349.97 203.578 347.12C205.791 344 205.791 338.643 205.791 327.928C205.791 323.963 205.791 321.98 205.225 320.202C204.7 318.556 203.826 317.043 202.663 315.766C201.407 314.386 199.689 313.394 196.255 311.412L110.457 261.876V305.918ZM110.631 243.907L177.358 282.432C186.638 287.789 191.277 290.468 195.085 290.111C198.565 289.785 201.73 287.957 203.752 285.107C205.965 281.988 205.965 276.631 205.965 265.917C205.965 261.951 205.965 259.968 205.398 258.19C204.874 256.544 204 255.031 202.837 253.754C201.581 252.375 199.864 251.383 196.43 249.4L110.631 199.864V243.907Z" fill="url(#paint0_linear_12_103)"/>
<defs>
<linearGradient id="paint0_linear_12_103" x1="95.6622" y1="371.665" x2="360.027" y2="178.234" gradientUnits="userSpaceOnUse">
<stop stop-color="white"/>
<stop offset="1" stop-color="#3F3F3F"/>
</linearGradient>
</defs>
</svg>
