<svg xmlns="http://www.w3.org/2000/svg" xmlns:xlink="http://www.w3.org/1999/xlink" version="1.1" width="256" height="256" viewBox="0 0 256 256" xml:space="preserve">
<g style="stroke: none; stroke-width: 0; stroke-dasharray: none; stroke-linecap: butt; stroke-linejoin: miter; stroke-miterlimit: 10; fill: none; fill-rule: nonzero; opacity: 1;" transform="translate(1.4065934065934016 1.4065934065934016) scale(2.81 2.81)">
	<rect x="0" y="0" rx="0" ry="0" width="90" height="90" style="stroke: none; stroke-width: 1; stroke-dasharray: none; stroke-linecap: butt; stroke-linejoin: miter; stroke-miterlimit: 10; fill: rgb(82,163,53); fill-rule: nonzero; opacity: 1;" transform=" matrix(1 0 0 1 0 0) "/>
	<path d="M 70.891 22.288 c 0 -0.673 0 -0.673 -0.698 -0.673 H 54.76 c -0.249 0 -0.499 0.012 -0.748 0 c -0.287 0 -0.436 0.112 -0.424 0.411 c 0.012 0.399 0.012 0.798 0.025 1.197 v 15.582 l 0.002 0.002 l -0.613 0.098 H 37.01 h -0.012 l -0.623 -0.1 c 0 -5.235 0 -10.458 0 -15.681 c 0.012 -0.324 0.012 -0.661 0.037 -0.972 c 0.025 -0.399 -0.137 -0.524 -0.524 -0.524 c -5.422 0.013 -10.857 0.013 -16.28 0 c -0.449 -0.012 -0.511 0.199 -0.511 0.573 c 0.012 2.393 0 4.799 0 7.193 c 0.012 3.179 0.012 6.357 0.012 9.536 c 0 0.195 0 0.391 0 0.586 c 0.012 0.798 0.012 0.798 0.798 0.798 c 5.086 0 10.172 0 15.258 0 c 0.399 0 0.798 -0.012 1.197 -0.025 c 0.001 -0.001 0.001 -0.003 0.003 -0.005 l 0.035 0.104 c -0.013 2.393 -0.013 4.787 -0.025 7.18 l -1.435 0.017 l -6.094 0.02 c -1.359 0 -1.359 0 -1.209 1.359 c 0 0.05 0.012 0.087 0.037 0.137 c 0 1.367 0 2.722 0 4.089 c 0.012 6.781 0.012 13.55 0.012 20.331 c -0.012 0.025 -0.025 0.062 -0.025 0.087 c -0.012 0.237 -0.037 0.461 -0.037 0.698 c 0 0.686 0 0.686 0.686 0.686 h 6.681 c 1.396 0 1.396 0 1.396 -1.421 c 0.012 -0.1 0.025 -0.199 0.037 -0.299 v -0.86 c -0.062 -0.137 -0.062 -0.299 0 -0.436 c 0.012 -1.645 0.025 -3.291 0.012 -4.949 c 0.013 -0.723 0.025 -0.735 0.723 -0.735 c 1.434 0 2.867 0 4.301 0 l 12.129 0.012 l -0.002 -0.002 h 0.012 l 0.002 0.002 c 0 2.364 0.012 4.716 0.012 7.068 c -0.012 0.075 -0.025 0.149 -0.025 0.224 l 0.212 -0.037 l -0.199 0.05 c 0 0.287 0.025 0.573 0 0.848 c -0.025 0.399 0.112 0.561 0.536 0.549 c 1.247 -0.025 2.493 -0.012 3.74 -0.012 c 1.334 0 2.655 0 3.989 0 c 0.224 0 0.499 0.05 0.499 -0.312 s 0.075 -0.735 -0.062 -1.085 c 0.012 -0.025 0.012 -0.062 0 -0.087 c 0.012 -0.299 0.025 -0.598 0.025 -0.898 c 0 -7.841 0 -15.681 0 -23.522 c 0.1 -0.224 0.062 -0.461 0.062 -0.698 c 0 -0.81 0 -0.81 -0.823 -0.81 l -7.928 -0.012 l -0.025 -7.18 c 0.012 -0.025 0.025 -0.062 0.037 -0.1 c 0.312 0.012 0.636 0.025 0.947 0.025 h 14.946 c 1.321 0 1.321 0 1.346 -1.296 c 0 -0.037 0 -0.062 0 -0.1 c 0 -0.162 0.013 -0.337 0.013 -0.499 C 70.891 33.046 70.891 27.661 70.891 22.288 z M 19.209 38.892 c -0.012 -0.182 -0.024 -0.353 -0.024 -0.536 v -0.013 C 19.184 38.53 19.197 38.705 19.209 38.892 L 19.209 38.892 z M 53.699 38.902 l -0.035 -0.047 l 0.038 0.038 L 53.699 38.902 z M 70.727 23.19 c 0.088 0.09 0.089 0.267 0.089 0.619 C 70.816 23.456 70.812 23.279 70.727 23.19 z" style="stroke: none; stroke-width: 1; stroke-dasharray: none; stroke-linecap: butt; stroke-linejoin: miter; stroke-miterlimit: 10; fill: rgb(0,0,0); fill-rule: nonzero; opacity: 1;" transform=" matrix(1 0 0 1 0 0) " stroke-linecap="round"/>
</g>
</svg>