<svg width="24" height="24" viewBox="0 0 24 24" fill="none" xmlns="http://www.w3.org/2000/svg">
<g clip-path="url(#clip0_5_821)">
<path d="M12 0C5.37055 0 0 5.50569 0 12.302C0 17.745 3.43527 22.3437 8.20473 23.9732C8.80473 24.0805 9.02946 23.7126 9.02946 23.3894C9.02946 23.0964 9.01527 22.1279 9.01527 21.0979C6 21.6671 5.22 20.3441 4.98 19.6529C4.84473 19.2984 4.26 18.2069 3.75055 17.915C3.33055 17.6835 2.72945 17.1154 3.73527 17.0997C4.68 17.0841 5.35527 17.9911 5.58 18.3612C6.66 20.2211 8.38473 19.6988 9.07527 19.3756C9.18 18.576 9.49527 18.038 9.84 17.7305C7.16946 17.4229 4.38 16.3616 4.38 11.6555C4.38 10.318 4.84473 9.21081 5.61055 8.34967C5.48945 8.04212 5.06945 6.78173 5.73055 5.08966C5.73055 5.08966 6.73527 4.76757 9.02946 6.35117C10.0063 6.07331 11.0157 5.93371 12.0295 5.93625C13.0505 5.93625 14.0705 6.07381 15.0295 6.35117C17.3247 4.75191 18.3295 5.08966 18.3295 5.08966C18.9895 6.78173 18.5705 8.04212 18.4505 8.34967C19.2153 9.21081 19.68 10.3034 19.68 11.6555C19.68 16.3773 16.8753 17.4229 14.2047 17.7305C14.64 18.1152 15.0153 18.8533 15.0153 20.0063C15.0153 21.6514 15 22.9745 15 23.3894C15 23.7126 15.2247 24.0962 15.8247 23.9732C20.5647 22.3437 24 17.7305 24 12.302C24 5.50569 18.6305 0 12 0Z" fill="white"/>
</g>
<defs>
<clipPath id="clip0_5_821">
<rect width="24" height="24" fill="white"/>
</clipPath>
</defs>
</svg>
