<svg id="Layer_1" data-name="Layer 1" xmlns="http://www.w3.org/2000/svg" viewBox="0 0 250.02 250.02"><title>Duolingo Icon logo - Brandlogos.net</title><path d="M306.59,259H461.45A47.56,47.56,0,0,1,509,306.57V461.43A47.58,47.58,0,0,1,461.42,509H306.59A47.6,47.6,0,0,1,259,461.41V306.57A47.56,47.56,0,0,1,306.59,259Z" transform="translate(-258.99 -258.99)" style="fill:#50c800"/><path d="M509,420.49V348.17a56.66,56.66,0,0,0-12.18-18.36,40.46,40.46,0,0,0-5.3-22.63A7.81,7.81,0,0,0,479,305.89l-8.08,9-.15,0a40.47,40.47,0,0,0-4.35-24.17c-2.49-4.69-7.88-5.52-11.6-1.71L416,328.25c-.44.41-.9.85-1.34,1.29l-.1.07c-16.87,15.28-43.16,15.92-59.23,1.88-1-1.1-2.05-2.15-3.15-3.17l-38.89-39.38c-3.71-3.81-9.11-3-11.6,1.71a40.5,40.5,0,0,0-4.37,24l-.22,0-8-8.86a7.83,7.83,0,0,0-12.6,1.29,40.38,40.38,0,0,0-5.32,22.17A57.15,57.15,0,0,0,259,347v74.58a56.74,56.74,0,0,0,52,34h2.49a56.68,56.68,0,0,0,51.71-33.47q12.78-.07,18.53-.07,12.45,0,19.41,0a56.71,56.71,0,0,0,51.76,33.57h1.76A56.72,56.72,0,0,0,509,420.49Z" transform="translate(-258.99 -258.99)" style="fill:#8ee000"/><path d="M314.46,333.21a39.45,39.45,0,0,1,39.45,39.45V396A39.45,39.45,0,0,1,275,396V372.66A39.45,39.45,0,0,1,314.46,333.21Z" transform="translate(-258.99 -258.99)" style="fill:#fff"/><path d="M453.06,333.21a39.45,39.45,0,0,1,39.45,39.45V396a39.45,39.45,0,0,1-78.91,0V372.66A39.44,39.44,0,0,1,453.06,333.21Z" transform="translate(-258.99 -258.99)" style="fill:#fff"/><path d="M320.54,355.86a18.73,18.73,0,0,1,18.73,18.73v20a18.73,18.73,0,0,1-37.45,0v-20A18.73,18.73,0,0,1,320.54,355.86Z" transform="translate(-258.99 -258.99)" style="fill:#4b4b4b"/><path d="M384,401.25a21.43,21.43,0,0,1,21.44,21.43v7.45a21.44,21.44,0,0,1-42.87,0v-7.45A21.43,21.43,0,0,1,384,401.25Z" transform="translate(-258.99 -258.99)" style="fill:#f48000"/><path d="M354.42,424.74c2.56-13.67,15.23-23.54,30.4-23.54,13.79,0,26.27,10.11,28.78,23.54v1.1c0,.85-.29,1.2-1.07,1.1l-27.68,4.93h-1.64l-27.71-5c-.78.1-1.07-.24-1.07-1.1Z" transform="translate(-258.99 -258.99)" style="fill:#ffc200"/><path d="M379.47,405.94a19.25,19.25,0,0,1,4.42-.54,18.93,18.93,0,0,1,4.79.61,7.29,7.29,0,0,1,5.47,7.06,4.83,4.83,0,0,1-4.83,4.83h-10.6a4.83,4.83,0,0,1-4.83-4.83A7.31,7.31,0,0,1,379.47,405.94Z" transform="translate(-258.99 -258.99)" style="fill:#ffe747"/><path d="M447,355.86a18.73,18.73,0,0,1,18.73,18.73v20a18.73,18.73,0,0,1-37.45,0v-20A18.74,18.74,0,0,1,447,355.86Z" transform="translate(-258.99 -258.99)" style="fill:#4b4b4b"/><path d="M304.72,378.57a12,12,0,1,0-12.08-12A12.06,12.06,0,0,0,304.72,378.57Z" transform="translate(-258.99 -258.99)" style="fill:#fff"/><path d="M429.33,378.57a12,12,0,1,0-12.09-12A12.06,12.06,0,0,0,429.33,378.57Z" transform="translate(-258.99 -258.99)" style="fill:#fff"/></svg>